<svg xmlns="http://www.w3.org/2000/svg" viewBox="0 0 1965 727" role="img" aria-label="2am" fill="#F8C8A8">
  <title>2am</title>
  <path d="M1 629 272 349Q297 324 312.0 303.0Q327 282 334.0 263.5Q341 245 341 226Q341 185 314.5 161.5Q288 138 245 138Q203 138 169.5 160.5Q136 183 105 234L0 143Q42 72 107.0 36.0Q172 0 256 0Q329 0 382.5 27.0Q436 54 465.5 104.0Q495 154 495 221Q495 263 484.0 298.5Q473 334 448.5 368.5Q424 403 383 444L195 631ZM1 717V629L134 583H509V717Z M798 727Q731 727 678.5 694.0Q626 661 595.5 604.0Q565 547 565 474Q565 401 595.5 344.0Q626 287 678.5 254.0Q731 221 798 221Q847 221 886.5 240.0Q926 259 951.0 292.5Q976 326 979 369V579Q976 622 951.5 655.5Q927 689 887.0 708.0Q847 727 798 727ZM829 589Q878 589 908.0 556.5Q938 524 938 474Q938 440 924.5 414.0Q911 388 886.5 373.5Q862 359 830 359Q798 359 773.5 373.5Q749 388 734.5 414.0Q720 440 720 474Q720 507 734.0 533.0Q748 559 773.0 574.0Q798 589 829 589ZM932 717V586L955 468L932 350V231H1082V717Z M1190 717V231H1343V717ZM1501 717V433Q1501 396 1478.5 375.5Q1456 355 1423 355Q1400 355 1382.0 364.5Q1364 374 1353.5 391.0Q1343 408 1343 433L1284 407Q1284 349 1309.0 307.5Q1334 266 1377.0 243.5Q1420 221 1474 221Q1525 221 1565.5 244.0Q1606 267 1630.0 308.0Q1654 349 1654 406V717ZM1812 717V433Q1812 396 1789.5 375.5Q1767 355 1734 355Q1711 355 1693.0 364.5Q1675 374 1664.5 391.0Q1654 408 1654 433L1566 421Q1568 359 1595.5 314.5Q1623 270 1668.5 245.5Q1714 221 1771 221Q1827 221 1870.5 244.5Q1914 268 1939.5 311.5Q1965 355 1965 416V717Z"/>
</svg>
