<svg xmlns="http://www.w3.org/2000/svg" viewBox="0 0 2033 734" role="img" aria-label="2am" fill="#F8C8A8">
  <title>2am</title>
  <path d="M7 617 291 331Q308 314 318.5 299.5Q329 285 333.5 272.0Q338 259 338 245Q338 210 315.5 189.5Q293 169 255 169Q221 169 192.0 189.5Q163 210 130 259L0 142Q44 72 113.5 36.0Q183 0 272 0Q353 0 411.5 28.5Q470 57 501.5 110.0Q533 163 533 236Q533 277 522.0 313.0Q511 349 487.0 383.5Q463 418 425 454L246 624ZM7 724V617L173 560H548V724Z M826 734Q757 734 704.0 701.0Q651 668 621.0 610.5Q591 553 591 478Q591 403 621.0 345.0Q651 287 704.0 254.5Q757 222 826 222Q869 222 905.5 236.5Q942 251 966.5 277.0Q991 303 998 337V619Q991 653 966.5 679.0Q942 705 905.5 719.5Q869 734 826 734ZM870 562Q907 562 929.5 538.5Q952 515 952 478Q952 453 942.0 434.5Q932 416 913.5 405.0Q895 394 871 394Q847 394 828.5 405.0Q810 416 799.0 435.0Q788 454 788 478Q788 502 798.5 521.0Q809 540 828.0 551.0Q847 562 870 562ZM946 724V592L973 472L946 353V232H1137V724Z M1231 724V232H1427V724ZM1534 724V442Q1534 417 1519.0 402.5Q1504 388 1481 388Q1465 388 1452.5 394.5Q1440 401 1433.5 413.0Q1427 425 1427 442L1351 414Q1351 354 1377.5 311.0Q1404 268 1449.0 245.0Q1494 222 1551 222Q1601 222 1641.5 246.0Q1682 270 1706.0 312.5Q1730 355 1730 413V724ZM1837 724V442Q1837 417 1822.0 402.5Q1807 388 1784 388Q1768 388 1755.5 394.5Q1743 401 1736.5 413.0Q1730 425 1730 442L1615 443Q1615 374 1642.5 324.5Q1670 275 1719.0 248.5Q1768 222 1831 222Q1890 222 1935.5 247.0Q1981 272 2007.0 319.0Q2033 366 2033 432V724Z"/>
</svg>
